<svg xmlns="http://www.w3.org/2000/svg" width="18.001" height="15.999" viewBox="0 0 18.001 15.999">
  <g id="icon_calendar-clock" transform="translate(0.5 0.5)">
    <g id="Group_2511" data-name="Group 2511">
      <g id="Group_15380" data-name="Group 15380">
        <line id="Line_297" data-name="Line 297" y2="2.594" transform="translate(3.713)" fill="none" stroke="#1d1d1d" stroke-linecap="round" stroke-linejoin="round" stroke-width="1"/>
        <line id="Line_298" data-name="Line 298" y2="2.594" transform="translate(10.139)" fill="none" stroke="#1d1d1d" stroke-linecap="round" stroke-linejoin="round" stroke-width="1"/>
        <line id="Line_299" data-name="Line 299" x2="13.482" transform="translate(0 5.187)" fill="none" stroke="#1d1d1d" stroke-linecap="round" stroke-linejoin="round" stroke-width="1"/>
      </g>
    </g>
    <rect id="Rectangle_3594" data-name="Rectangle 3594" width="1.95" height="1.95" transform="translate(2.308 7.365)" fill="none" stroke="#1d1d1d" stroke-linecap="round" stroke-linejoin="round" stroke-width="1"/>
    <rect id="Rectangle_3595" data-name="Rectangle 3595" width="1.95" height="1.95" transform="translate(6.031 7.365)" fill="none" stroke="#1d1d1d" stroke-linecap="round" stroke-linejoin="round" stroke-width="1"/>
    <g id="Group_2513" data-name="Group 2513" transform="translate(0 1.414)">
      <g id="Group_2527" data-name="Group 2527">
        <path id="Path_7197" data-name="Path 7197" d="M10.636,13.089a3.683,3.683,0,0,1,3.683-3.683,3.751,3.751,0,0,1,.478.034V4.968a1.782,1.782,0,0,0-1.781-1.781H2.781A1.782,1.782,0,0,0,1,4.968v8.818a1.781,1.781,0,0,0,1.781,1.781H11.6A3.665,3.665,0,0,1,10.636,13.089Z" transform="translate(-1 -3.187)" fill="none" stroke="#1d1d1d" stroke-linecap="round" stroke-linejoin="round" stroke-width="1"/>
        <path id="Path_7199" data-name="Path 7199" d="M19.591,12.809a3.683,3.683,0,1,1-3.683,3.683A3.682,3.682,0,0,1,19.591,12.809Z" transform="translate(-6.272 -6.589)" fill="none" stroke="#1d1d1d" stroke-linecap="round" stroke-linejoin="round" stroke-width="1"/>
        <path id="Path_7200" data-name="Path 7200" d="M22.8,18.274H21.052v-2" transform="translate(-8.091 -7.814)" fill="none" stroke="#1d1d1d" stroke-linecap="round" stroke-linejoin="round" stroke-width="1"/>
      </g>
    </g>
  </g>
</svg>
