<svg id="logo_instagram" xmlns="http://www.w3.org/2000/svg" width="25.118" height="25.118" viewBox="0 0 25.118 25.118">
  <path id="Path_1387" data-name="Path 1387" d="M25.043,7.381a9.206,9.206,0,0,0-.584-3.049A6.151,6.151,0,0,0,23.01,2.108,6.156,6.156,0,0,0,20.786.659,9.235,9.235,0,0,0,17.737.076C16.44.016,16,0,12.87,0h-.622C9.121,0,8.679.016,7.381.076A9.235,9.235,0,0,0,4.332.659,6.165,6.165,0,0,0,2.108,2.108,6.165,6.165,0,0,0,.659,4.332,9.235,9.235,0,0,0,.076,7.381C.014,8.721,0,9.148,0,12.559S.014,16.4.076,17.737a9.235,9.235,0,0,0,.583,3.049A6.156,6.156,0,0,0,2.108,23.01a6.151,6.151,0,0,0,2.224,1.449,9.232,9.232,0,0,0,3.049.584c1.34.061,1.767.075,5.178.075s3.839-.014,5.178-.075a9.232,9.232,0,0,0,3.049-.584,6.429,6.429,0,0,0,3.673-3.673,9.206,9.206,0,0,0,.584-3.049c.059-1.3.074-1.739.075-4.867v-.622C25.117,9.121,25.1,8.679,25.043,7.381ZM22.782,17.634a6.949,6.949,0,0,1-.432,2.332,4.165,4.165,0,0,1-2.384,2.384,6.949,6.949,0,0,1-2.332.432c-1.324.061-1.721.073-5.075.073s-3.751-.012-5.075-.073a6.961,6.961,0,0,1-2.332-.432,3.894,3.894,0,0,1-1.444-.94,3.883,3.883,0,0,1-.939-1.444,6.942,6.942,0,0,1-.433-2.332c-.06-1.324-.073-1.721-.073-5.075s.013-3.751.073-5.075a6.954,6.954,0,0,1,.433-2.332,3.883,3.883,0,0,1,.939-1.444,3.891,3.891,0,0,1,1.444-.939,6.954,6.954,0,0,1,2.332-.433c1.325-.06,1.722-.073,5.075-.073s3.751.013,5.075.073a6.942,6.942,0,0,1,2.332.433,3.883,3.883,0,0,1,1.444.939,3.886,3.886,0,0,1,.94,1.444,6.961,6.961,0,0,1,.432,2.332c.061,1.324.074,1.722.074,5.075S22.843,16.31,22.782,17.634Z" fill="#182779"/>
  <path id="Path_1388" data-name="Path 1388" d="M12.559,6.11a6.449,6.449,0,1,0,6.45,6.449A6.449,6.449,0,0,0,12.559,6.11Zm0,10.636a4.187,4.187,0,1,1,4.187-4.187A4.187,4.187,0,0,1,12.559,16.746Z" fill="#182779"/>
  <path id="Path_1389" data-name="Path 1389" d="M19.263,4.348A1.507,1.507,0,1,0,20.77,5.855,1.507,1.507,0,0,0,19.263,4.348Z" fill="#182779"/>
</svg>
