<svg id="logo_linkedin" xmlns="http://www.w3.org/2000/svg" width="18.195" height="17.387" viewBox="0 0 18.195 17.387">
  <path id="Path_1394" data-name="Path 1394" d="M0,2.02A1.889,1.889,0,0,1,.615.571,2.252,2.252,0,0,1,2.213,0,2.186,2.186,0,0,1,3.776.562a1.98,1.98,0,0,1,.615,1.51,1.849,1.849,0,0,1-.6,1.4,2.258,2.258,0,0,1-1.616.58H2.16A2.147,2.147,0,0,1,.6,3.477,1.945,1.945,0,0,1,0,2.02ZM.228,17.387V5.655h3.9V17.387Zm6.06,0h3.9V10.836a2.522,2.522,0,0,1,.14-.948,2.546,2.546,0,0,1,.747-1.01,1.907,1.907,0,0,1,1.255-.413q1.968,0,1.967,2.652v6.27h3.9V10.661a5.651,5.651,0,0,0-1.229-3.943,4.194,4.194,0,0,0-3.249-1.344,3.984,3.984,0,0,0-3.53,1.95v.035h-.018l.018-.035V5.655h-3.9q.034.563.035,3.495T6.288,17.387Z" fill="#182779"/>
</svg>
