<svg id="logo_driveli" xmlns="http://www.w3.org/2000/svg" xmlns:xlink="http://www.w3.org/1999/xlink" width="121.889" height="45.971" viewBox="0 0 121.889 45.971">
  <defs>
    <clipPath id="clip-path">
      <rect id="Rectangle_6056" data-name="Rectangle 6056" width="111.587" height="6.06" fill="none"/>
    </clipPath>
  </defs>
  <g id="logo_driveli-claim" transform="translate(0 35.883)">
    <g id="Group_4825" data-name="Group 4825" transform="translate(0 4.028)">
      <g id="Group_4825-2" data-name="Group 4825" clip-path="url(#clip-path)">
        <path id="Path_47740" data-name="Path 47740" d="M0,.749H2.519A3.9,3.9,0,0,1,4.2,1.1a2.691,2.691,0,0,1,1.14.974,2.594,2.594,0,0,1,.406,1.44,2.592,2.592,0,0,1-.406,1.44,2.687,2.687,0,0,1-1.14.974,3.89,3.89,0,0,1-1.683.348H0ZM2.468,5.586a2.958,2.958,0,0,0,1.277-.261,1.987,1.987,0,0,0,.85-.729,1.979,1.979,0,0,0,.3-1.086,1.979,1.979,0,0,0-.3-1.085,1.988,1.988,0,0,0-.85-.73,2.958,2.958,0,0,0-1.277-.26H.854V5.586Z" transform="translate(0 -0.299)" fill="#6f7e93"/>
        <path id="Path_47741" data-name="Path 47741" d="M11.689,3.106a2.457,2.457,0,0,1,1.016-.189v.734a1.7,1.7,0,0,0-.188-.008,1.441,1.441,0,0,0-1.046.367,1.382,1.382,0,0,0-.38,1.045V7.139h-.82V2.956h.785v.7a1.361,1.361,0,0,1,.632-.552" transform="translate(-3.593 -1.165)" fill="#6f7e93"/>
        <path id="Path_47742" data-name="Path 47742" d="M15.105.845A.45.45,0,0,1,14.948.5a.461.461,0,0,1,.157-.351A.564.564,0,0,1,15.5,0a.583.583,0,0,1,.4.138.437.437,0,0,1,.158.343A.47.47,0,0,1,15.9.84a.563.563,0,0,1-.4.146.575.575,0,0,1-.4-.142m-.012.947h.82V5.973h-.82Z" transform="translate(-5.229 0)" fill="#6f7e93"/>
        <path id="Path_47743" data-name="Path 47743" d="M22.019,2.982,20.038,7.164H19.2L17.22,2.982h.854l1.554,3.353,1.589-3.353Z" transform="translate(-6.024 -1.19)" fill="#6f7e93"/>
        <path id="Path_47744" data-name="Path 47744" d="M29.041,5.3H25.368a1.29,1.29,0,0,0,.525.888,1.809,1.809,0,0,0,1.114.335,1.747,1.747,0,0,0,1.307-.505l.453.49A1.985,1.985,0,0,1,28,7.012a3.1,3.1,0,0,1-2.293-.1,2.03,2.03,0,0,1-.858-.761,2.054,2.054,0,0,1-.3-1.1,2.081,2.081,0,0,1,.3-1.1,2.036,2.036,0,0,1,.811-.762,2.465,2.465,0,0,1,1.166-.272,2.412,2.412,0,0,1,1.157.272,2,2,0,0,1,.795.762,2.181,2.181,0,0,1,.285,1.12,2.053,2.053,0,0,1-.016.229M25.833,3.887a1.3,1.3,0,0,0-.466.868h2.9a1.313,1.313,0,0,0-.466-.864,1.626,1.626,0,0,0-1.973,0" transform="translate(-8.587 -1.164)" fill="#6f7e93"/>
        <path id="Path_47745" data-name="Path 47745" d="M36.306,6.1a2.741,2.741,0,0,1-.986-.5l.316-.615a2.678,2.678,0,0,0,.875.461,3.455,3.455,0,0,0,1.1.178,2.107,2.107,0,0,0,1.11-.233.705.705,0,0,0,.367-.619.588.588,0,0,0-.2-.461,1.362,1.362,0,0,0-.5-.273q-.295-.095-.833-.213a8.965,8.965,0,0,1-1.088-.3,1.8,1.8,0,0,1-.709-.461,1.174,1.174,0,0,1-.295-.84,1.343,1.343,0,0,1,.252-.8,1.707,1.707,0,0,1,.764-.568A3.32,3.32,0,0,1,37.754.644,4.346,4.346,0,0,1,38.8.77a2.918,2.918,0,0,1,.88.363l-.282.631a3.308,3.308,0,0,0-1.64-.449,1.959,1.959,0,0,0-1.089.245.734.734,0,0,0-.363.631.582.582,0,0,0,.2.461,1.453,1.453,0,0,0,.508.276,8.461,8.461,0,0,0,.824.209,8.917,8.917,0,0,1,1.085.3,1.822,1.822,0,0,1,.7.458,1.145,1.145,0,0,1,.295.828,1.334,1.334,0,0,1-.256.793,1.694,1.694,0,0,1-.777.568,3.45,3.45,0,0,1-1.281.209,4.391,4.391,0,0,1-1.3-.193" transform="translate(-12.355 -0.257)" fill="#6f7e93"/>
        <path id="Path_47746" data-name="Path 47746" d="M50.755,3.374a1.751,1.751,0,0,1,.5,1.357V7.138h-.821V4.818a1.253,1.253,0,0,0-.3-.916,1.164,1.164,0,0,0-.867-.308,1.355,1.355,0,0,0-.991.359,1.376,1.376,0,0,0-.367,1.03V7.138h-.821V4.818a1.253,1.253,0,0,0-.3-.916,1.164,1.164,0,0,0-.867-.308,1.355,1.355,0,0,0-.991.359,1.376,1.376,0,0,0-.367,1.03V7.138h-.82V2.956h.786v.624a1.565,1.565,0,0,1,.649-.493,2.333,2.333,0,0,1,.914-.17,2.144,2.144,0,0,1,.94.2,1.432,1.432,0,0,1,.631.576,1.71,1.71,0,0,1,.713-.568A2.484,2.484,0,0,1,49.4,2.916a1.927,1.927,0,0,1,1.354.458" transform="translate(-15.3 -1.164)" fill="#6f7e93"/>
        <path id="Path_47747" data-name="Path 47747" d="M60.128,3.343a1.576,1.576,0,0,1,.5,1.271V7.139H59.85V6.586a1.276,1.276,0,0,1-.585.446,2.406,2.406,0,0,1-.9.153,2,2,0,0,1-1.217-.339,1.11,1.11,0,0,1-.021-1.779,2.279,2.279,0,0,1,1.384-.336h1.3v-.15a.928.928,0,0,0-.308-.75,1.369,1.369,0,0,0-.906-.26,2.589,2.589,0,0,0-.785.122,2.087,2.087,0,0,0-.649.327l-.341-.568a2.56,2.56,0,0,1,.837-.4,3.772,3.772,0,0,1,1.033-.138,2.157,2.157,0,0,1,1.439.426m-.815,3.066a1.136,1.136,0,0,0,.5-.548V5.276H58.543q-1.042,0-1.042.647a.572.572,0,0,0,.265.5A1.285,1.285,0,0,0,58.5,6.6a1.627,1.627,0,0,0,.811-.193" transform="translate(-19.831 -1.165)" fill="#6f7e93"/>
        <path id="Path_47748" data-name="Path 47748" d="M66.107,3.106a2.457,2.457,0,0,1,1.016-.189v.734a1.7,1.7,0,0,0-.188-.008,1.441,1.441,0,0,0-1.046.367,1.382,1.382,0,0,0-.38,1.045V7.139h-.82V2.956h.785v.7a1.361,1.361,0,0,1,.632-.552" transform="translate(-22.629 -1.165)" fill="#6f7e93"/>
        <path id="Path_47749" data-name="Path 47749" d="M72.073,6.311a1.256,1.256,0,0,1-.444.217,2,2,0,0,1-.546.075,1.523,1.523,0,0,1-1.059-.339,1.238,1.238,0,0,1-.376-.97V3h-.769V2.374h.769V1.458h.82v.916h1.3V3h-1.3V5.261a.7.7,0,0,0,.183.521.717.717,0,0,0,.525.181,1.042,1.042,0,0,0,.64-.2Z" transform="translate(-24.094 -0.582)" fill="#6f7e93"/>
        <path id="Path_47750" data-name="Path 47750" d="M78.534,5.3H74.861a1.29,1.29,0,0,0,.525.888,1.809,1.809,0,0,0,1.114.335,1.747,1.747,0,0,0,1.307-.505l.453.49a1.985,1.985,0,0,1-.765.505,3.1,3.1,0,0,1-2.293-.1,2.03,2.03,0,0,1-.858-.761,2.054,2.054,0,0,1-.3-1.1,2.081,2.081,0,0,1,.3-1.1,2.036,2.036,0,0,1,.811-.762,2.465,2.465,0,0,1,1.166-.272,2.412,2.412,0,0,1,1.157.272,2,2,0,0,1,.795.762,2.181,2.181,0,0,1,.285,1.12,2.054,2.054,0,0,1-.016.229M75.326,3.887a1.3,1.3,0,0,0-.466.868h2.9A1.313,1.313,0,0,0,77.3,3.89a1.626,1.626,0,0,0-1.973,0" transform="translate(-25.9 -1.164)" fill="#6f7e93"/>
        <path id="Path_47751" data-name="Path 47751" d="M83.747,3.106a2.457,2.457,0,0,1,1.016-.189v.734a1.7,1.7,0,0,0-.188-.008,1.441,1.441,0,0,0-1.046.367,1.382,1.382,0,0,0-.38,1.045V7.139h-.82V2.956h.785v.7a1.361,1.361,0,0,1,.632-.552" transform="translate(-28.8 -1.165)" fill="#6f7e93"/>
        <path id="Path_47752" data-name="Path 47752" d="M94.741,6.328l-.794-.734a2.888,2.888,0,0,1-2,.71,3.006,3.006,0,0,1-1.076-.181,1.732,1.732,0,0,1-.747-.509,1.138,1.138,0,0,1-.269-.746,1.329,1.329,0,0,1,.337-.9,3.863,3.863,0,0,1,1.114-.8,2.806,2.806,0,0,1-.555-.655,1.23,1.23,0,0,1-.163-.608,1.079,1.079,0,0,1,.44-.9A1.87,1.87,0,0,1,92.2.67a1.741,1.741,0,0,1,1.085.308,1,1,0,0,1,.4.845,1.093,1.093,0,0,1-.295.749,3.546,3.546,0,0,1-.978.694l1.477,1.358a3.342,3.342,0,0,0,.368-1l.657.2A3.5,3.5,0,0,1,94.4,5.081l.8.741ZM93.46,5.152,91.76,3.59a3.052,3.052,0,0,0-.858.588.894.894,0,0,0-.243.612.737.737,0,0,0,.371.639A1.731,1.731,0,0,0,92,5.673a2.086,2.086,0,0,0,1.461-.521M91.577,1.408a.6.6,0,0,0-.227.485.762.762,0,0,0,.124.41,3.15,3.15,0,0,0,.482.536,3.7,3.7,0,0,0,.816-.529A.666.666,0,0,0,93,1.83a.535.535,0,0,0-.21-.442.917.917,0,0,0-.585-.166.961.961,0,0,0-.627.186" transform="translate(-31.432 -0.267)" fill="#6f7e93"/>
        <path id="Path_47753" data-name="Path 47753" d="M106.558,1.262a1.684,1.684,0,0,1,.666,1.412,1.684,1.684,0,0,1-.666,1.412,2.928,2.928,0,0,1-1.828.513h-1.478V6.272H102.4V.749h2.332a2.924,2.924,0,0,1,1.828.513m-.615,2.332a1.08,1.08,0,0,0,.427-.919,1.082,1.082,0,0,0-.427-.92,2.043,2.043,0,0,0-1.238-.319h-1.453V3.913h1.453a2.039,2.039,0,0,0,1.238-.32" transform="translate(-35.82 -0.299)" fill="#6f7e93"/>
        <path id="Path_47754" data-name="Path 47754" d="M114.007,3.343a1.576,1.576,0,0,1,.5,1.271V7.139h-.777V6.586a1.276,1.276,0,0,1-.585.446,2.406,2.406,0,0,1-.9.153,2,2,0,0,1-1.217-.339A1.111,1.111,0,0,1,111,5.067a2.279,2.279,0,0,1,1.384-.336h1.3v-.15a.928.928,0,0,0-.308-.75,1.369,1.369,0,0,0-.906-.26,2.586,2.586,0,0,0-.785.122,2.1,2.1,0,0,0-.65.327l-.341-.568a2.566,2.566,0,0,1,.837-.4,3.78,3.78,0,0,1,1.034-.138,2.157,2.157,0,0,1,1.439.426m-.815,3.066a1.136,1.136,0,0,0,.5-.548V5.276h-1.265q-1.042,0-1.042.647a.573.573,0,0,0,.265.5,1.29,1.29,0,0,0,.735.181,1.627,1.627,0,0,0,.811-.193" transform="translate(-38.678 -1.165)" fill="#6f7e93"/>
        <path id="Path_47755" data-name="Path 47755" d="M118.491,7.048a2.429,2.429,0,0,1-.8-.351l.341-.6a2.547,2.547,0,0,0,.726.315,3.2,3.2,0,0,0,.863.119q1.076,0,1.076-.568a.357.357,0,0,0-.145-.3.949.949,0,0,0-.363-.162c-.145-.034-.352-.072-.619-.114a6.544,6.544,0,0,1-.893-.181,1.4,1.4,0,0,1-.593-.347.919.919,0,0,1-.248-.687,1.051,1.051,0,0,1,.512-.911,2.441,2.441,0,0,1,1.376-.343,4.121,4.121,0,0,1,.905.1,2.569,2.569,0,0,1,.743.276l-.35.6a2.508,2.508,0,0,0-1.306-.331,1.614,1.614,0,0,0-.795.157.474.474,0,0,0-.274.419.386.386,0,0,0,.154.323,1,1,0,0,0,.38.174c.15.037.363.079.636.126a7.279,7.279,0,0,1,.884.186,1.341,1.341,0,0,1,.576.335.892.892,0,0,1,.239.663,1.026,1.026,0,0,1-.525.9,2.633,2.633,0,0,1-1.43.335,4.087,4.087,0,0,1-1.068-.138" transform="translate(-41.169 -1.165)" fill="#6f7e93"/>
        <path id="Path_47756" data-name="Path 47756" d="M124.678,7.048a2.429,2.429,0,0,1-.8-.351l.341-.6a2.547,2.547,0,0,0,.726.315,3.2,3.2,0,0,0,.863.119q1.076,0,1.076-.568a.357.357,0,0,0-.145-.3.949.949,0,0,0-.363-.162c-.145-.034-.352-.072-.619-.114a6.545,6.545,0,0,1-.893-.181,1.4,1.4,0,0,1-.593-.347.919.919,0,0,1-.248-.687,1.051,1.051,0,0,1,.512-.911,2.441,2.441,0,0,1,1.376-.343,4.121,4.121,0,0,1,.905.1,2.569,2.569,0,0,1,.743.276l-.35.6a2.508,2.508,0,0,0-1.306-.331,1.614,1.614,0,0,0-.795.157.474.474,0,0,0-.274.419.386.386,0,0,0,.154.323,1,1,0,0,0,.38.174c.15.037.363.079.636.126a7.279,7.279,0,0,1,.884.186,1.341,1.341,0,0,1,.576.335.892.892,0,0,1,.239.663,1.026,1.026,0,0,1-.525.9,2.633,2.633,0,0,1-1.43.335,4.087,4.087,0,0,1-1.068-.138" transform="translate(-43.333 -1.165)" fill="#6f7e93"/>
        <path id="Path_47757" data-name="Path 47757" d="M135.118,1.435V3.361h3v.678h-3V6.273h-.854V.749h4.219v.687Z" transform="translate(-46.967 -0.299)" fill="#6f7e93"/>
        <path id="Path_47758" data-name="Path 47758" d="M144.677,3.343a1.576,1.576,0,0,1,.5,1.271V7.139H144.4V6.586a1.276,1.276,0,0,1-.585.446,2.406,2.406,0,0,1-.9.153,2,2,0,0,1-1.217-.339,1.111,1.111,0,0,1-.021-1.779,2.279,2.279,0,0,1,1.384-.336h1.3v-.15a.928.928,0,0,0-.308-.75,1.369,1.369,0,0,0-.906-.26,2.585,2.585,0,0,0-.785.122,2.1,2.1,0,0,0-.65.327l-.341-.568a2.566,2.566,0,0,1,.837-.4,3.78,3.78,0,0,1,1.034-.138,2.157,2.157,0,0,1,1.439.426m-.815,3.066a1.136,1.136,0,0,0,.5-.548V5.276h-1.265q-1.042,0-1.042.647a.573.573,0,0,0,.265.5,1.29,1.29,0,0,0,.735.181,1.627,1.627,0,0,0,.811-.193" transform="translate(-49.407 -1.165)" fill="#6f7e93"/>
        <path id="Path_47759" data-name="Path 47759" d="M149.161,7.048a2.429,2.429,0,0,1-.8-.351l.341-.6a2.547,2.547,0,0,0,.726.315,3.2,3.2,0,0,0,.863.119q1.076,0,1.076-.568a.357.357,0,0,0-.145-.3.95.95,0,0,0-.363-.162c-.145-.034-.352-.072-.619-.114a6.544,6.544,0,0,1-.893-.181,1.4,1.4,0,0,1-.593-.347.919.919,0,0,1-.248-.687,1.051,1.051,0,0,1,.512-.911,2.441,2.441,0,0,1,1.376-.343,4.121,4.121,0,0,1,.905.1,2.569,2.569,0,0,1,.743.276l-.35.6a2.508,2.508,0,0,0-1.306-.331,1.614,1.614,0,0,0-.795.157.474.474,0,0,0-.274.419.386.386,0,0,0,.154.323,1,1,0,0,0,.38.174c.15.037.363.079.636.126a7.279,7.279,0,0,1,.884.186,1.341,1.341,0,0,1,.576.335.892.892,0,0,1,.239.663,1.026,1.026,0,0,1-.525.9,2.633,2.633,0,0,1-1.43.335,4.087,4.087,0,0,1-1.068-.138" transform="translate(-51.897 -1.165)" fill="#6f7e93"/>
        <path id="Path_47760" data-name="Path 47760" d="M157.621,6.311a1.251,1.251,0,0,1-.444.217,2,2,0,0,1-.546.075,1.522,1.522,0,0,1-1.059-.339,1.238,1.238,0,0,1-.376-.97V3h-.769V2.374h.769V1.458h.82v.916h1.3V3h-1.3V5.261a.7.7,0,0,0,.183.521.717.717,0,0,0,.525.181,1.041,1.041,0,0,0,.64-.2Z" transform="translate(-54.02 -0.582)" fill="#6f7e93"/>
        <path id="Path_47761" data-name="Path 47761" d="M164.082,5.3h-3.673a1.293,1.293,0,0,0,.525.888,1.81,1.81,0,0,0,1.115.335,1.747,1.747,0,0,0,1.306-.505l.453.49a1.987,1.987,0,0,1-.764.505,3.105,3.105,0,0,1-2.293-.1,2.012,2.012,0,0,1-1.162-1.866,2.087,2.087,0,0,1,.3-1.1,2.029,2.029,0,0,1,.811-.762,2.461,2.461,0,0,1,1.166-.272,2.411,2.411,0,0,1,1.157.272,1.993,1.993,0,0,1,.795.762,2.181,2.181,0,0,1,.286,1.12,2.077,2.077,0,0,1-.017.229m-3.207-1.412a1.3,1.3,0,0,0-.466.868h2.9a1.313,1.313,0,0,0-.466-.864,1.626,1.626,0,0,0-1.973,0" transform="translate(-55.826 -1.164)" fill="#6f7e93"/>
        <path id="Path_47762" data-name="Path 47762" d="M169.3,3.106a2.456,2.456,0,0,1,1.016-.189v.734a1.7,1.7,0,0,0-.188-.008,1.443,1.443,0,0,0-1.046.367,1.385,1.385,0,0,0-.38,1.045V7.139h-.82V2.956h.785v.7a1.359,1.359,0,0,1,.633-.552" transform="translate(-58.725 -1.165)" fill="#6f7e93"/>
      </g>
    </g>
  </g>
  <g id="logo_driveli-symbol" transform="translate(0.138)">
    <path id="Path_487" data-name="Path 487" d="M392.74,113.208h2.024v.321h-.817v1.937h-.389v-1.937h-.817Zm4.6,2.258-.006-1.583-.844,1.316h-.178l-.849-1.289v1.556h-.374v-2.258h.32l1,1.545.979-1.545h.32l.005,2.258Z" transform="translate(-275.967 -90.575)" fill="#fff"/>
    <path id="Path_488" data-name="Path 488" d="M276.866,91.819a6.342,6.342,0,0,1-4.579-1.934,6.408,6.408,0,0,1-1.922-4.6,6.5,6.5,0,0,1,1.905-4.612,6.3,6.3,0,0,1,4.6-1.978,6.362,6.362,0,0,1,4.648,1.977,6.512,6.512,0,0,1,1.906,4.613,6.583,6.583,0,0,1-6.553,6.535m0-8.35a1.563,1.563,0,0,0-1.2.543,1.7,1.7,0,0,0-.549,1.272,1.823,1.823,0,0,0,1.751,1.759,1.653,1.653,0,0,0,1.272-.534,1.613,1.613,0,0,0,.532-1.225,1.7,1.7,0,0,0-.551-1.272,1.616,1.616,0,0,0-1.253-.542" transform="translate(-233.408 -78.694)" fill="#fff"/>
    <path id="Path_489" data-name="Path 489" d="M299.895,122.332a2.371,2.371,0,0,1-1.988-1.081l-10.245-15.759a2.4,2.4,0,0,1-.1-2.443,2.373,2.373,0,0,1,2.089-1.252h20.49a2.372,2.372,0,0,1,2.088,1.252,2.4,2.4,0,0,1-.1,2.443l-10.245,15.759a2.372,2.372,0,0,1-1.988,1.081m-5.856-15.759,5.856,9.006,5.856-9.006Z" transform="translate(-239.288 -86.647)" fill="#fff"/>
    <path id="Path_490" data-name="Path 490" d="M229.965,89.354h5.168v28.194h-5.168v-2.377a7.733,7.733,0,0,1-6.49,2.94,9.1,9.1,0,0,1-6.91-3.081,11.387,11.387,0,0,1,0-15.1,9.093,9.093,0,0,1,6.91-3.081,7.736,7.736,0,0,1,6.49,2.94Zm-9.514,22.213a5.389,5.389,0,0,0,3.986,1.591,5.324,5.324,0,0,0,3.966-1.591,6.131,6.131,0,0,0,0-8.176,5.321,5.321,0,0,0-3.966-1.591,5.386,5.386,0,0,0-3.986,1.591,6.072,6.072,0,0,0,0,8.176" transform="translate(-213.701 -82.363)" fill="#fff"/>
    <path id="Path_491" data-name="Path 491" d="M258.975,104.889a5.421,5.421,0,0,1,2.383-2.9,7.242,7.242,0,0,1,3.706-.967v5.8a6.065,6.065,0,0,0-4.226.967,4.624,4.624,0,0,0-1.863,4.148v9.626h-5.167V101.426h5.167Z" transform="translate(-227.649 -86.38)" fill="#fff"/>
    <rect id="Rectangle_197" data-name="Rectangle 197" width="5.168" height="17.318" transform="translate(40.418 17.867)" fill="#fff"/>
    <path id="Path_492" data-name="Path 492" d="M332.4,113.546q1.042,3.786,5.648,3.786a5.273,5.273,0,0,0,4.486-2.014l4.167,2.417a9.918,9.918,0,0,1-8.733,4.31A10.741,10.741,0,0,1,330,119.023a11.177,11.177,0,0,1-.04-15.2,10.169,10.169,0,0,1,7.611-3.041,9.527,9.527,0,0,1,7.271,3.062,10.665,10.665,0,0,1,2.864,7.572,12.275,12.275,0,0,1-.2,2.135Zm-.08-4.028h10.214a4.87,4.87,0,0,0-1.822-3.061,5.208,5.208,0,0,0-3.144-1.007,5.417,5.417,0,0,0-3.446,1.068,5.107,5.107,0,0,0-1.8,3" transform="translate(-253.103 -86.296)" fill="#fff"/>
    <rect id="Rectangle_198" data-name="Rectangle 198" width="5.168" height="24.786" transform="translate(97.976 10.445)" fill="#00affd"/>
    <rect id="Rectangle_199" data-name="Rectangle 199" width="5.168" height="12.652" transform="translate(106.573 22.626)" fill="#00affd"/>
    <rect id="Rectangle_200" data-name="Rectangle 200" width="5.166" height="5.194" transform="translate(106.574 14.569)" fill="#00affd"/>
  </g>
</svg>
