<svg id="logo_twitter" xmlns="http://www.w3.org/2000/svg" width="20.333" height="16.525" viewBox="0 0 20.333 16.525">
  <path id="Path_1386" data-name="Path 1386" d="M20.333,1.956a8.337,8.337,0,0,1-2.4.657A4.184,4.184,0,0,0,19.772.305a8.358,8.358,0,0,1-2.65,1.012,4.175,4.175,0,0,0-7.108,3.805A11.844,11.844,0,0,1,1.416.764,4.175,4.175,0,0,0,2.707,6.333a4.152,4.152,0,0,1-1.89-.522v.053a4.174,4.174,0,0,0,3.346,4.09,4.152,4.152,0,0,1-1.1.147,4.229,4.229,0,0,1-.785-.075,4.177,4.177,0,0,0,3.9,2.9A8.369,8.369,0,0,1,1,14.709a8.373,8.373,0,0,1-1-.059,11.805,11.805,0,0,0,6.395,1.875A11.789,11.789,0,0,0,18.264,4.655c0-.181,0-.361-.012-.539A8.48,8.48,0,0,0,20.333,1.956Z" fill="#182779"/>
</svg>
