<svg xmlns="http://www.w3.org/2000/svg" width="43.267" height="14" viewBox="0 0 43.267 14">
  <g id="logo_visa" opacity="0.5" style="mix-blend-mode: luminosity;isolation: isolate">
    <g id="Group_616" data-name="Group 616">
      <path id="_Compound_Path_" data-name=" Compound Path " d="M28.691,0c-3.468,0-5.9,1.843-5.922,4.477,0,1.952,1.738,3.041,3.065,3.69s1.824,1.09,1.819,1.682c0,.909-1.094,1.321-2.1,1.321a7.015,7.015,0,0,1-3.316-.71l-.474-.218-.473,3.037a10.62,10.62,0,0,0,3.9.72c3.677,0,6.069-1.82,6.1-4.633,0-1.55-.919-2.72-2.946-3.686C27.122,5.05,26.369,4.633,26.378,4c.033-.558.668-1.156,2.042-1.156a6.118,6.118,0,0,1,2.619.521l.313.156L31.827.578A8.64,8.64,0,0,0,28.691,0Zm-10.9.237L15.62,13.806h3.5L21.314.237h-3.52ZM12.683.251h3.709l-5.514,13.54H7.168L4.032,1.895A10.5,10.5,0,0,1,8.888,7.58l.365,1.895Zm25.426,0h2.705L43.656,13.81H40.4s-.317-1.559-.426-2.032H35.489c-.137.364-.739,2.041-.739,2.041H31.069L36.28,1.388A1.734,1.734,0,0,1,38.108.251Zm.247,3.658h0c-.18.507-.474,1.331-.474,1.293s-1.1,3.013-1.4,3.79h2.909l-.815-3.913Z" transform="translate(-0.389 0)" fill="#00579f"/>
      <g id="_Group_3" data-name=" Group 3" transform="translate(0 0.241)">
        <path id="_Compound_Path_2" data-name=" Compound Path 2" d="M5.685.267H.033L0,.5A11.8,11.8,0,0,1,8.5,7.648L7.272,1.409A1.475,1.475,0,0,0,5.685.267Z" transform="translate(0 -0.267)" fill="#faa61a"/>
      </g>
    </g>
  </g>
</svg>
